PathFileType	4	(X/Y/Z)	./resultDataOpenSim/trcMotMarkerGrf/sub06/qtm-01-03.trc
DataRate	CameraRate	NumFrames	NumMarkers	Units	OrigDataRate	OrigDataStartFrame	OrigNumFrames
250.000000	250.000000	6	24	m	250.000000	321	512
Frame#	Time	L.Toe.Tip			R.Toe.Tip			L.Ankle.Lat			R.Ankle.Lat			L.Ankle.Med			R.Ankle.Med			L.Heel			R.Heel			L.Knee.Lat			R.Knee.Lat			L.Knee.Med			R.Knee.Med			L.Thigh.Upper			R.Thigh.Upper			L.ASIS			R.ASIS			V.Sacral			L.Acromium			R.Acromium			C7			L.Elbow			R.Elbow			L.Wrist.Lat			R.Wrist.Lat
		X1	Y1	Z1	X2	Y2	Z2	X3	Y3	Z3	X4	Y4	Z4	X5	Y5	Z5	X6	Y6	Z6	X7	Y7	Z7	X8	Y8	Z8	X9	Y9	Z9	X10	Y10	Z10	X11	Y11	Z11	X12	Y12	Z12	X13	Y13	Z13	X14	Y14	Z14	X15	Y15	Z15	X16	Y16	Z16	X17	Y17	Z17	X18	Y18	Z18	X19	Y19	Z19	X20	Y20	Z20	X21	Y21	Z21	X22	Y22	Z22	X23	Y23	Z23	X24	Y24	Z24

321	1.28	0.26400137	0.079059145	-0.040173567	0.82419647	0.035691509	0.11772322	0.26600737	0.20884892	-0.074871818	0.68674197	0.060104932	0.14499561	0.29182934	0.21394542	0.0064518595	0.70475164	0.083443394	0.058163967	0.22390296	0.2662743	-0.024138583	0.63211057	0.038685826	0.087221531	0.59461473	0.39685323	-0.11132893	0.73398152	0.44797137	0.17221442	0.60632235	0.38238996	0.0088386407	0.69177821	0.43523824	0.049325405	0.56594559	0.78917732	-0.1067796	0.62895688	0.80802276	0.23237544	0.64278849	0.84144329	-0.076341901	0.70033565	0.8626758	0.16080533	0.48643991	0.92171702	0.076662076	0.5769988	1.3350814	-0.12062982	0.59529904	1.310941	0.2425282	0.50807058	1.3615677	0.065365011	0.58595246	1.0079145	-0.17248942	0.49920654	1.0092476	0.29361912	0.78468178	0.8641254	-0.1462031	0.60128615	0.79466162	0.33630367
322	1.284	0.27874456	0.079942384	-0.040723816	0.82416452	0.035675748	0.11774535	0.2783018	0.20995938	-0.074809726	0.68669776	0.060094545	0.14502223	0.30402735	0.215258	0.0065421994	0.70480973	0.083509031	0.058228854	0.23512475	0.26634439	-0.023736421	0.63208072	0.038786662	0.087242649	0.6059379	0.3985038	-0.11178346	0.73572314	0.44784926	0.17255953	0.6180535	0.38409521	0.0084663255	0.69345234	0.43532005	0.049602939	0.57193348	0.79071489	-0.10631737	0.63400122	0.80875495	0.23274217	0.64965643	0.84326693	-0.076904973	0.70584613	0.86361565	0.16149521	0.49211271	0.92295144	0.077500407	0.58246705	1.3364495	-0.12036473	0.60144889	1.3123638	0.24265619	0.51385478	1.3628533	0.06568851	0.58993374	1.009446	-0.17197094	0.50770162	1.0098493	0.2945936	0.78676495	0.86310953	-0.1467432	0.61274026	0.79657237	0.33657591
323	1.288	0.2936622	0.080627091	-0.041277654	0.82413539	0.035662486	0.1177775	0.29073609	0.21081388	-0.074710483	0.68666607	0.060089399	0.14505196	0.31639576	0.21634078	0.0066433452	0.70487136	0.083576134	0.058301759	0.24642839	0.26620644	-0.023336299	0.63205297	0.038904728	0.087275082	0.61720007	0.40028966	-0.11219293	0.73736379	0.44780086	0.17289284	0.62987426	0.38582195	0.0081542198	0.69495835	0.43545576	0.0498826	0.57791316	0.79228724	-0.10584413	0.63891646	0.80945132	0.23311225	0.65685207	0.84515497	-0.077670185	0.71130098	0.86455545	0.16219984	0.49804213	0.92412035	0.078952251	0.58788747	1.3378192	-0.12010202	0.60755452	1.3138036	0.24277461	0.51961887	1.3641343	0.06599836	0.59388041	1.0110099	-0.17149484	0.51583904	1.0104268	0.29542076	0.78878017	0.86215673	-0.14730532	0.62404183	0.79850893	0.33674547
324	1.292	0.30873739	0.081115701	-0.041843681	0.82410923	0.035649753	0.1178126	0.30330963	0.21138989	-0.074583898	0.68664767	0.060087293	0.14508423	0.32893173	0.21715852	0.0067436856	0.7049312	0.083648612	0.058383996	0.25787101	0.26585356	-0.022956379	0.6320313	0.039033363	0.08731123	0.62843966	0.40221893	-0.11261216	0.73893378	0.44779153	0.17322144	0.64178418	0.38758148	0.0078782125	0.69626685	0.43565495	0.050200575	0.58390105	0.79388184	-0.1053311	0.64399154	0.81021162	0.23365653	0.66419279	0.84705647	-0.078458842	0.71670899	0.86549492	0.16292124	0.50428637	0.92524644	0.080922316	0.59326464	1.339194	-0.11985004	0.61361128	1.3152544	0.24288229	0.52537167	1.3654087	0.066294278	0.59777416	1.0126076	-0.17107148	0.52381462	1.011023	0.29618246	0.79072267	0.86126374	-0.14790268	0.63537232	0.80053575	0.33689656
325	1.296	0.3239642	0.081406228	-0.04242769	0.82408982	0.035634935	0.11784647	0.31602004	0.21169219	-0.074455763	0.68663844	0.060094213	0.14512312	0.34161075	0.21769992	0.0068373298	0.70498773	0.083732629	0.058476831	0.26950223	0.26525191	-0.022592417	0.63201825	0.039165867	0.087349133	0.63967452	0.4042738	-0.11308062	0.74046025	0.44779307	0.17349695	0.6537566	0.38938432	0.0076133278	0.69752858	0.43590363	0.050512799	0.58992341	0.79548731	-0.10480286	0.64917357	0.81101334	0.23431917	0.6714393	0.84891115	-0.07905294	0.72207597	0.86644884	0.16366221	0.51056138	0.92638727	0.08281872	0.59861063	1.3405787	-0.11961274	0.61961741	1.3167115	0.24297594	0.53112179	1.3666758	0.066573951	0.60158309	1.0142341	-0.17072795	0.53187683	1.011686	0.29698251	0.79259095	0.86042449	-0.14854581	0.64687627	0.80271862	0.33709679
326	1.3	0.33933534	0.081508841	-0.043047769	0.82407944	0.035617728	0.11787826	0.32886322	0.21174958	-0.074360692	0.68663375	0.060117801	0.14517413	0.35440989	0.21797154	0.0069166483	0.70504191	0.083835215	0.058578562	0.28132365	0.26438472	-0.022229823	0.63201387	0.039296789	0.087390746	0.65085794	0.40639858	-0.11355037	0.74192193	0.44779996	0.17367438	0.66572444	0.39124219	0.0073591523	0.6989432	0.43618031	0.050743074	0.59599491	0.79709308	-0.10435329	0.65412706	0.8117295	0.23485645	0.67842158	0.85067861	-0.079309759	0.72740142	0.86742695	0.1644255	0.51656612	0.92756888	0.084176549	0.60394155	1.3419695	-0.11938625	0.62558222	1.3181708	0.24305792	0.53687255	1.3679347	0.066835619	0.60527681	1.0158721	-0.17052875	0.54014792	1.0124326	0.29787285	0.79439492	0.859637	-0.14922797	0.65853568	0.80506318	0.33734265
